# xmcd
#
# Track frame offsets:
#	150
#	18667
#	34862
#	49080
#	65730
#	79750
#	97542
#	112582
#	127527
#	142862
#	159327
#	175287
#	190207
#	205210
#	221677
#	240787
#	255765
#
# Disc length: 3530 seconds
#
# Revision: 3
# Processed by: cddbd v1.5.1PL0 Copyright (c) Steve Scherf et al.
# Submitted via: audiograbber 1.83.01
#
DISCID=ca0dc811
DTITLE=Seer - Uebern See
DYEAR=1900
DGENRE=
TTITLE0=Die Seer - Auf und davon
TTITLE1=Die Seer - Ueber'n See
TTITLE2=Die Seer - Fix auf da Alm
TTITLE3=Die Seer - Voglfonga
TTITLE4=Die Seer - Iss mit mir
TTITLE5=Die Seer - Meraner
TTITLE6=Die Seer - Hab di stad
TTITLE7=Die Seer - Seerisch
TTITLE8=Die Seer - Oder was
TTITLE9=Die Seer - Rudl Radl
TTITLE10=Die Seer - Daraeho
TTITLE11=Die Seer - 3 Tag
TTITLE12=Die Seer - Lang her
TTITLE13=Die Seer - Vordernbach-Liad
TTITLE14=Die Seer - Alpera
TTITLE15=Die Seer - Her ueberd Alm
TTITLE16=Die Seer - Augsterer
EXTD=Kontakt: A-8993 Grundlsee, Postfach 9
EXTT0=
EXTT1=
EXTT2=
EXTT3=
EXTT4=
EXTT5=
EXTT6=
EXTT7=
EXTT8=
EXTT9=
EXTT10=
EXTT11=
EXTT12=
EXTT13=
EXTT14=
EXTT15=
EXTT16=
PLAYORDER=
